<svg id="Layer_1" data-name="Layer 1" xmlns="http://www.w3.org/2000/svg" xmlns:xlink="http://www.w3.org/1999/xlink" viewBox="0 0 1080 1080"><defs><style>.cls-1{fill-rule:evenodd;fill:url(#linear-gradient);}.cls-2{fill:url(#linear-gradient-2);}.cls-3{fill:url(#linear-gradient-3);}.cls-4{fill:url(#linear-gradient-4);}.cls-5{fill:url(#linear-gradient-5);}.cls-6{fill:url(#linear-gradient-6);}.cls-7{fill:url(#linear-gradient-7);}.cls-8{fill:url(#linear-gradient-8);}.cls-9{fill:url(#linear-gradient-9);}.cls-10{fill:url(#linear-gradient-10);}</style><linearGradient id="linear-gradient" x1="831.54" y1="87.37" x2="831.54" y2="708.63" gradientUnits="userSpaceOnUse"><stop offset="0" stop-color="#fbaf33"/><stop offset="1" stop-color="#f05a22"/></linearGradient><linearGradient id="linear-gradient-2" x1="540.01" y1="-16.75" x2="540.01" y2="418.31" gradientUnits="userSpaceOnUse"><stop offset="0" stop-color="#faaf40"/><stop offset="1" stop-color="#e34a21"/></linearGradient><linearGradient id="linear-gradient-3" x1="540" y1="87.39" x2="540" y2="708.61" xlink:href="#linear-gradient"/><linearGradient id="linear-gradient-4" x1="597.76" y1="-201.61" x2="550.21" y2="716.06" xlink:href="#linear-gradient"/><linearGradient id="linear-gradient-5" x1="599.52" y1="-193.38" x2="552.44" y2="715.05" xlink:href="#linear-gradient"/><linearGradient id="linear-gradient-6" x1="601.22" y1="-184.21" x2="554.63" y2="714.95" xlink:href="#linear-gradient"/><linearGradient id="linear-gradient-7" x1="504.5" y1="300.93" x2="504.5" y2="723.69" xlink:href="#linear-gradient"/><linearGradient id="linear-gradient-8" x1="575.52" y1="300.93" x2="575.52" y2="723.69" xlink:href="#linear-gradient"/><linearGradient id="linear-gradient-9" x1="504.5" y1="301.03" x2="504.5" y2="723.67" xlink:href="#linear-gradient"/><linearGradient id="linear-gradient-10" x1="575.52" y1="301.03" x2="575.52" y2="723.67" xlink:href="#linear-gradient"/></defs><polygon class="cls-1" points="787.48 157.34 875.6 224.01 860.25 292.87 787.48 237.07 787.48 157.34"/><path class="cls-2" d="M642.1,876.4H642c-11.16-90.55,16.89-130.47,46.59-172.94,26-37.22,52.91-75.66,52.91-151.7C741.45,416.59,637.05,355,540,355S338.55,416.59,338.55,551.76c0,64.75,24.35,101.14,50.11,139.63,29.95,44.75,60.91,90.87,49.39,185H408.74l2.61-26.4c3.26-67.84-19.9-102.41-46.71-142.5-25.79-38.54-55-82.21-55-155.74,0-148.14,115.9-225.63,230.37-225.63s230.38,77.49,230.38,225.63c0,85.14-30.91,129.29-58.15,168.26-25,35.71-46.52,66.51-43.56,130l.71,26.36Z"/><path class="cls-3" d="M864.65,412.32h120.1L540.22,72l-445,340.31H215.37L248.69,876.4H410.18l2.49-26.28c3.28-68.32-20.19-103.39-46.94-143.38-25.67-38.35-54.78-81.85-54.78-155C311,404.5,426.19,327.43,540,327.43S769.07,404.5,769.07,551.76c0,84.72-30.77,128.7-57.91,167.51-24.9,35.61-46.75,66.84-43.8,130.85L668,876.4H831.32Z"/><rect class="cls-4" x="400.41" y="902.09" width="279.19" height="21.78"/><rect class="cls-5" x="428.28" y="944.38" width="223.45" height="21.34"/><rect class="cls-6" x="450.69" y="986.19" width="178.65" height="21.79"/><rect class="cls-7" x="476.23" y="550.44" width="56.54" height="56.21"/><rect class="cls-8" x="547.24" y="550.44" width="56.56" height="56.21"/><rect class="cls-9" x="476.23" y="621.05" width="56.54" height="56.19"/><rect class="cls-10" x="547.24" y="621.05" width="56.56" height="56.19"/></svg>